D:\school\WTK\thesis\model\3dpredictsim\Results\debug_batch\Pog_s1_tmt_bCst_d00_k2000_ig24_pas_GRF.mot
nRows=22
nColumns=19

name D:\school\WTK\thesis\model\3dpredictsim\Results\debug_batch\Pog_s1_tmt_bCst_d00_k2000_ig24_pas_GRF.mot
datacolumns 19
datarows 22
range 0.5505933033 0.7818424908
endheader
time 	ground_force_vx	ground_force_vy	ground_force_vz	ground_force_px	ground_force_py	ground_force_pz	1_ground_force_vx	1_ground_force_vy	1_ground_force_vz	1_ground_force_px	1_ground_force_py	1_ground_force_pz	ground_torque_x	ground_torque_y	ground_torque_z	1_ground_torque_x	1_ground_torque_y	1_ground_torque_z
        0.5505933033	      101.6594391807	      547.2700391927	        2.5080231054	        0.3823921285	        0.0000000000	        0.0374399705	      -73.5367910697	       58.3940082962	      -24.7024473324	        0.8646276674	        0.0000000000	       -0.0393339925	        0.0000000000	        0.0000000000	        0.0000000000	        0.0000000000	        0.0000000000	        0.0000000000	
        0.5616051694	       88.7065969420	      474.5357092125	        6.0382540258	        0.3851745125	        0.0000000000	        0.0367884495	     -116.3930604370	      128.6321048294	      -63.8224828351	        0.8724843712	        0.0000000000	       -0.0370292055	        0.0000000000	        0.0000000000	        0.0000000000	        0.0000000000	        0.0000000000	        0.0000000000	
        0.5726170355	       73.3118160633	      390.6057071218	        8.2256345771	        0.3892598944	        0.0000000000	        0.0355637595	      -44.3738352158	      252.9910098840	      -33.9718845371	        0.8780717513	        0.0000000000	       -0.0346363650	        0.0000000000	        0.0000000000	        0.0000000000	        0.0000000000	        0.0000000000	        0.0000000000	
        0.5836289015	       56.0170477149	      305.3906007289	        4.4492115165	        0.3953493000	        0.0000000000	        0.0332682450	      -33.7833170212	      389.6638708981	       -5.2479172225	        0.8810151330	        0.0000000000	       -0.0342107793	        0.0000000000	        0.0000000000	        0.0000000000	        0.0000000000	        0.0000000000	        0.0000000000	
        0.5946407676	       27.9438450926	      209.4743792224	        5.8968330348	        0.4063605203	        0.0000000000	        0.0285901529	      -58.6144347668	      541.3896230662	        3.1425500745	        0.8871255438	        0.0000000000	       -0.0359084940	        0.0000000000	        0.0000000000	        0.0000000000	        0.0000000000	        0.0000000000	        0.0000000000	
        0.6056526337	       10.0203691577	      140.3339869911	       11.7007137809	        0.4210156785	        0.0000000000	        0.0215657444	      -87.1138908732	      686.9968994208	        8.3692522873	        0.8943441125	        0.0000000000	       -0.0381486606	        0.0000000000	        0.0000000000	        0.0000000000	        0.0000000000	        0.0000000000	        0.0000000000	
        0.6166644997	        2.9256619711	      116.3433297220	       12.9659066579	        0.4206895198	        0.0000000000	        0.0218877600	     -102.1319459220	      772.6794855919	       10.6650973448	        0.8994419997	        0.0000000000	       -0.0395987146	        0.0000000000	        0.0000000000	        0.0000000000	        0.0000000000	        0.0000000000	        0.0000000000	
        0.6276763658	        0.5989573493	       83.5538407753	       13.1417996961	        0.4212753928	        0.0000000000	        0.0219762533	     -103.0440907059	      800.8422299937	       11.5919290953	        0.9031062860	        0.0000000000	       -0.0405036536	        0.0000000000	        0.0000000000	        0.0000000000	        0.0000000000	        0.0000000000	        0.0000000000	
        0.6386882319	       -4.5862490823	       46.1673965331	       10.1802532279	        0.4215490648	        0.0000000000	        0.0219480923	      -97.2247340203	      796.1482291060	       11.3394922551	        0.9061238165	        0.0000000000	       -0.0410748983	        0.0000000000	        0.0000000000	        0.0000000000	        0.0000000000	        0.0000000000	        0.0000000000	
        0.6497000979	       -5.7486880463	        8.3644853028	        1.9160151864	        0.0000000000	        0.0000000000	        0.0000000000	      -89.5767052482	      783.2387280835	       12.0748663395	        0.9092206940	        0.0000000000	       -0.0413835016	        0.0000000000	        0.0000000000	        0.0000000000	        0.0000000000	        0.0000000000	        0.0000000000	
        0.6607119640	        0.0011987378	       -0.0010711992	        0.0000211542	        0.0000000000	        0.0000000000	        0.0000000000	      -79.4441438749	      766.6692304630	       13.4277961543	        0.9124742755	        0.0000000000	       -0.0415282361	        0.0000000000	        0.0000000000	        0.0000000000	        0.0000000000	        0.0000000000	        0.0000000000	
        0.6717238301	        0.0000565869	       -0.0000428827	        0.0000032097	        0.0000000000	        0.0000000000	        0.0000000000	      -68.8726203871	      743.6992511224	       14.2020250502	        0.9162156840	        0.0000000000	       -0.0416052993	        0.0000000000	        0.0000000000	        0.0000000000	        0.0000000000	        0.0000000000	        0.0000000000	
        0.6827356961	        0.0000750148	       -0.0000498488	        0.0000054197	        0.0000000000	        0.0000000000	        0.0000000000	      -60.2073211282	      720.1343248831	       14.7644494662	        0.9206969775	        0.0000000000	       -0.0415648286	        0.0000000000	        0.0000000000	        0.0000000000	        0.0000000000	        0.0000000000	        0.0000000000	
        0.6937475622	        0.0016002714	       -0.0009622372	        0.0001277094	        0.0000000000	        0.0000000000	        0.0000000000	      -51.4257904020	      694.3576248043	       15.3896911897	        0.9252993039	        0.0000000000	       -0.0415137942	        0.0000000000	        0.0000000000	        0.0000000000	        0.0000000000	        0.0000000000	        0.0000000000	
        0.7047594283	       -0.0155251977	        0.0085965768	       -0.0013144199	        0.0000000000	        0.0000000000	        0.0000000000	      -42.8933622038	      667.8957391394	       16.0111021211	        0.9298145374	        0.0000000000	       -0.0415193286	        0.0000000000	        0.0000000000	        0.0000000000	        0.0000000000	        0.0000000000	        0.0000000000	
        0.7157712943	       -0.0206567808	        0.0106797162	       -0.0018244355	        0.0000000000	        0.0000000000	        0.0000000000	      -35.3857564373	      643.6191910654	       16.5193129987	        0.9342679951	        0.0000000000	       -0.0415770091	        0.0000000000	        0.0000000000	        0.0000000000	        0.0000000000	        0.0000000000	        0.0000000000	
        0.7267831604	       -0.0138239510	        0.0067433432	       -0.0012569047	        0.0000000000	        0.0000000000	        0.0000000000	      -28.9638603225	      622.8605272510	       17.0098819903	        0.9386636358	        0.0000000000	       -0.0416678451	        0.0000000000	        0.0000000000	        0.0000000000	        0.0000000000	        0.0000000000	        0.0000000000	
        0.7377950265	       -0.0111305257	        0.0051672758	       -0.0010309909	        0.0000000000	        0.0000000000	        0.0000000000	      -23.2635068217	      606.3011377782	       17.4458087783	        0.9432937800	        0.0000000000	       -0.0417711786	        0.0000000000	        0.0000000000	        0.0000000000	        0.0000000000	        0.0000000000	        0.0000000000	
        0.7488068926	       -0.0120374432	        0.0053555508	       -0.0011248531	        0.0000000000	        0.0000000000	        0.0000000000	      -19.0262463871	      594.4687912640	       17.6006751827	        0.9483030214	        0.0000000000	       -0.0418610863	        0.0000000000	        0.0000000000	        0.0000000000	        0.0000000000	        0.0000000000	        0.0000000000	
        0.7598187586	       -0.0172567279	        0.0073993665	       -0.0016111931	        0.0000000000	        0.0000000000	        0.0000000000	      -16.0512863585	      586.7318858240	       17.5696836269	        0.9535415864	        0.0000000000	       -0.0419168642	        0.0000000000	        0.0000000000	        0.0000000000	        0.0000000000	        0.0000000000	        0.0000000000	
        0.7708306247	       -0.0308352180	        0.0128014721	       -0.0028570565	        0.0000000000	        0.0000000000	        0.0000000000	      -14.0318036377	      582.6847939613	       17.6041122034	        0.9590877223	        0.0000000000	       -0.0419263449	        0.0000000000	        0.0000000000	        0.0000000000	        0.0000000000	        0.0000000000	        0.0000000000	
        0.7818424908	       -0.0631822822	        0.0255068489	       -0.0057885671	        0.0000000000	        0.0000000000	        0.0000000000	      -13.0520106205	      581.1928539076	       17.6403023569	        0.9648203014	        0.0000000000	       -0.0418907317	        0.0000000000	        0.0000000000	        0.0000000000	        0.0000000000	        0.0000000000	        0.0000000000	
